<svg width="55" height="60" viewBox="0 0 55 60" fill="none" xmlns="http://www.w3.org/2000/svg">
<path d="M26.4949 55.9366H11.0186C6.81263 55.9366 3.40002 52.5114 3.40002 48.318V11.0186C3.40002 6.81263 6.82522 3.40002 11.0186 3.40002H26.7468C27.6912 3.40002 28.4468 2.64446 28.4468 1.70001C28.4468 0.755559 27.6912 0 26.7468 0H11.0186C4.93632 0 0 4.94891 0 11.0186V48.318C0 54.4003 4.94891 59.3366 11.0186 59.3366H26.4949C27.4394 59.3366 28.195 58.581 28.195 57.6366C28.195 56.6921 27.4268 55.9366 26.4949 55.9366Z" fill="#2246C0"/>
<path d="M54.5006 28.472L43.6961 17.6676C43.0287 17.0001 41.9583 17.0001 41.2909 17.6676C40.6235 18.335 40.6235 19.4053 41.2909 20.0727L49.1991 27.9809H14.7078C13.7634 27.9809 13.0078 28.7365 13.0078 29.6809C13.0078 30.6254 13.7634 31.3809 14.7078 31.3809H49.1991L41.2909 39.2891C40.6235 39.9565 40.6235 41.0269 41.2909 41.6943C41.6183 42.0217 42.0591 42.198 42.4872 42.198C42.9154 42.198 43.3561 42.0343 43.6835 41.6943L54.488 30.8898C55.168 30.2098 55.168 29.1269 54.5006 28.472Z" fill="#2246C0"/>
</svg>
