<svg xmlns="http://www.w3.org/2000/svg" width="21.12" height="13.407" viewBox="0 0 21.12 13.407">
    <defs>
        <style>
            .cls-1 {
            fill: #fff;
            fill-rule: evenodd;
            }
        </style>
    </defs>
    <path id="vk.svg" class="cls-1" d="M1363.05,457.008h1.26a1.037,1.037,0,0,0,.58-0.276,1.074,1.074,0,0,0,.17-0.611s-0.02-1.884.76-2.159,1.77,1.8,2.83,2.6a1.764,1.764,0,0,0,1.4.448l2.82,0a0.88,0.88,0,0,0,.77-1.4,9.857,9.857,0,0,0-2.09-2.669c-1.77-1.808-1.53-1.515.6-4.64,1.29-1.9,1.81-3.066,1.65-3.563a1.193,1.193,0,0,0-1.1-.392l-3.18,0a0.711,0.711,0,0,0-.41.09,1,1,0,0,0-.28.4,21.382,21.382,0,0,1-1.18,2.752c-1.41,2.644-1.97,2.782-2.2,2.617-0.54-.382-0.41-1.535-0.41-2.355,0-2.561.35-3.63-.69-3.9a4.863,4.863,0,0,0-1.48-.163,6.241,6.241,0,0,0-2.63.3c-0.36.194-.64,0.627-0.47,0.653a1.4,1.4,0,0,1,.94.519,3.729,3.729,0,0,1,.31,1.581s0.19,3.015-.44,3.389c-0.42.259-1.01-.267-2.27-2.665a21.447,21.447,0,0,1-1.13-2.611,1.069,1.069,0,0,0-.27-0.388,1.214,1.214,0,0,0-.48-0.218l-3.02,0a0.966,0.966,0,0,0-.62.231,0.779,0.779,0,0,0-.01.592s2.36,6.128,5.03,9.194A6.981,6.981,0,0,0,1363.05,457.008Z" transform="translate(-1352.72 -443.781)"/>
</svg>