<?xml version="1.0"?>
<svg xmlns="http://www.w3.org/2000/svg" height="712px" viewBox="0 0 448 448" width="712px">
    <g>
        <path d="m320 136c0 4.417969-3.582031 8-8 8s-8-3.582031-8-8 3.582031-8 8-8 8 3.582031 8 8zm0 0"
              data-original="#000000" class="active-path" data-old_color="#000000" fill="#FFF"/>
        <path d="m328 96h-208c-13.253906 0-24 10.746094-24 24v208c0 13.253906 10.746094 24 24 24h208c13.253906 0 24-10.746094 24-24v-208c0-13.253906-10.746094-24-24-24zm-104 208c-44.183594 0-80-35.816406-80-80s35.816406-80 80-80 80 35.816406 80 80c-.046875 44.164062-35.835938 79.953125-80 80zm88-144c-13.253906 0-24-10.746094-24-24s10.746094-24 24-24 24 10.746094 24 24-10.746094 24-24 24zm0 0"
              data-original="#000000" class="active-path" data-old_color="#000000" fill="#FFF"/>
        <path d="m288 224c0 35.347656-28.652344 64-64 64s-64-28.652344-64-64 28.652344-64 64-64 64 28.652344 64 64zm0 0"
              data-original="#000000" class="active-path" data-old_color="#000000" fill="#FFF"/>
    </g>
</svg>
